<svg width="27" height="22" viewBox="0 0 27 22" fill="none" xmlns="http://www.w3.org/2000/svg">
<path d="M24.7031 0.5H2.25C0.984375 0.5 0 1.53125 0 2.75V19.25C0 20.5156 0.984375 21.5 2.25 21.5H24.7031C25.9688 21.5 27 20.5156 27 19.25V2.75C27 1.53125 25.9688 0.5 24.7031 0.5ZM2.53125 2.75H24.4219C24.6094 2.75 24.7031 2.89062 24.7031 3.03125V5H2.25V3.03125C2.25 2.89062 2.34375 2.75 2.53125 2.75ZM24.4219 19.25H2.53125C2.34375 19.25 2.25 19.1562 2.25 18.9688V11H24.7031V18.9688C24.7031 19.1562 24.6094 19.25 24.4219 19.25ZM9 14.5625C9 14.2812 8.71875 14 8.4375 14H5.0625C4.73438 14 4.5 14.2812 4.5 14.5625V16.4375C4.5 16.7656 4.73438 17 5.0625 17H8.4375C8.71875 17 9 16.7656 9 16.4375V14.5625ZM18 14.5625C18 14.2812 17.7188 14 17.4375 14H11.0625C10.7344 14 10.5 14.2812 10.5 14.5625V16.4375C10.5 16.7656 10.7344 17 11.0625 17H17.4375C17.7188 17 18 16.7656 18 16.4375V14.5625Z" fill="#4BB45E"/>
</svg>
