<svg width="30" height="22" viewBox="0 0 30 22" fill="none" xmlns="http://www.w3.org/2000/svg">
<path d="M15 6.54688C12.8906 6.54688 11.25 8.5625 11.25 11.0469C11.25 13.5781 12.8906 15.5938 15 15.5938C17.0625 15.5938 18.75 13.5781 18.75 11.0469C18.75 8.5625 17.0625 6.54688 15 6.54688ZM29.1094 1.57812C27.2812 0.828125 25.4531 0.5 23.625 0.5C17.8594 0.5 12.0938 3.45312 6.32812 3.45312C4.875 3.45312 3.42188 3.26562 1.96875 2.79688C1.82812 2.75 1.64062 2.70312 1.5 2.70312C0.703125 2.70312 0 3.35938 0 4.20312V19.1094C0 19.6719 0.328125 20.2344 0.84375 20.4688C2.67188 21.2188 4.5 21.5 6.32812 21.5C12.0938 21.5 17.8594 18.5938 23.625 18.5938C25.0781 18.5938 26.5312 18.7812 27.9844 19.25C28.125 19.2969 28.3125 19.2969 28.4531 19.2969C29.25 19.2969 30 18.6875 30 17.8438V2.9375C30 2.375 29.625 1.8125 29.1094 1.57812ZM27.75 16.8125C26.4375 16.5312 25.0781 16.3438 23.625 16.3438C20.4844 16.3438 17.3906 17.1406 14.4375 17.8906C11.5781 18.5938 8.90625 19.25 6.32812 19.25C4.82812 19.25 3.46875 19.0625 2.25 18.5938V5.23438C3.51562 5.51562 4.875 5.70312 6.32812 5.70312C9.46875 5.70312 12.5625 4.90625 15.5156 4.15625C18.375 3.45312 21.0469 2.75 23.625 2.75C25.125 2.75 26.4844 2.98438 27.75 3.45312V16.8125Z" fill="#4BB45E"/>
</svg>
